<mxfile host="app.diagrams.net" agent="Mozilla/5.0 (Windows NT 10.0; Win64; x64) AppleWebKit/537.36 (KHTML, like Gecko) Chrome/134.0.0.0 Safari/537.36" version="26.2.4">
  <diagram name="P치gina-1" id="0zWpZcYg9fMdn5pHhCEN">
    <mxGraphModel dx="1898" dy="1022" grid="1" gridSize="10" guides="1" tooltips="1" connect="1" arrows="1" fold="1" page="1" pageScale="1" pageWidth="827" pageHeight="1169" math="0" shadow="0">
      <root>
        <mxCell id="0" />
        <mxCell id="1" parent="0" />
        <mxCell id="eUPfIZxgv_1y9K3NGQbY-1" value="EQUIPO" style="swimlane;childLayout=stackLayout;horizontal=1;startSize=50;horizontalStack=0;rounded=1;fontSize=14;fontStyle=0;strokeWidth=2;resizeParent=0;resizeLast=1;shadow=0;dashed=0;align=center;arcSize=4;whiteSpace=wrap;html=1;" vertex="1" parent="1">
          <mxGeometry x="260" y="240" width="160" height="150" as="geometry" />
        </mxCell>
        <mxCell id="eUPfIZxgv_1y9K3NGQbY-2" value="&lt;div&gt;- ID_Equipo (PK)&lt;/div&gt;&lt;div&gt;- Nombre&lt;/div&gt;&lt;div&gt;- Estadio&lt;/div&gt;&lt;div&gt;- Aforo&lt;/div&gt;&lt;div&gt;- Fundacion (A침o)&lt;/div&gt;&lt;div&gt;- Ciudad&lt;/div&gt;&lt;div&gt;&lt;br&gt;&lt;/div&gt;" style="align=left;strokeColor=none;fillColor=none;spacingLeft=4;spacingRight=4;fontSize=12;verticalAlign=top;resizable=0;rotatable=0;part=1;html=1;whiteSpace=wrap;" vertex="1" parent="eUPfIZxgv_1y9K3NGQbY-1">
          <mxGeometry y="50" width="160" height="100" as="geometry" />
        </mxCell>
        <mxCell id="eUPfIZxgv_1y9K3NGQbY-5" value="JUGADOR" style="swimlane;childLayout=stackLayout;horizontal=1;startSize=50;horizontalStack=0;rounded=1;fontSize=14;fontStyle=0;strokeWidth=2;resizeParent=0;resizeLast=1;shadow=0;dashed=0;align=center;arcSize=4;whiteSpace=wrap;html=1;" vertex="1" parent="1">
          <mxGeometry x="620" y="240" width="160" height="150" as="geometry" />
        </mxCell>
        <mxCell id="eUPfIZxgv_1y9K3NGQbY-6" value="&lt;div&gt;- ID_Jugador (PK)&lt;/div&gt;&lt;div&gt;- Nombre&lt;/div&gt;&lt;div&gt;- FechaNac&lt;/div&gt;&lt;div&gt;- Posicion (Portero, defensa, etc.)&lt;/div&gt;&lt;div&gt;- ID_Equipo (FK)&lt;/div&gt;&lt;div&gt;&lt;br&gt;&lt;/div&gt;" style="align=left;strokeColor=none;fillColor=none;spacingLeft=4;spacingRight=4;fontSize=12;verticalAlign=top;resizable=0;rotatable=0;part=1;html=1;whiteSpace=wrap;" vertex="1" parent="eUPfIZxgv_1y9K3NGQbY-5">
          <mxGeometry y="50" width="160" height="100" as="geometry" />
        </mxCell>
        <mxCell id="eUPfIZxgv_1y9K3NGQbY-7" value="PRESIDENTE" style="swimlane;childLayout=stackLayout;horizontal=1;startSize=50;horizontalStack=0;rounded=1;fontSize=14;fontStyle=0;strokeWidth=2;resizeParent=0;resizeLast=1;shadow=0;dashed=0;align=center;arcSize=4;whiteSpace=wrap;html=1;" vertex="1" parent="1">
          <mxGeometry x="70" y="540" width="160" height="170" as="geometry" />
        </mxCell>
        <mxCell id="eUPfIZxgv_1y9K3NGQbY-8" value="&lt;div&gt;- ID_Presidente (PK)&lt;/div&gt;&lt;div&gt;- Nombre&lt;/div&gt;&lt;div&gt;- Apellidos&lt;/div&gt;&lt;div&gt;- FechaNac&lt;/div&gt;&lt;div&gt;- A침oEleccion&lt;/div&gt;&lt;div&gt;- ID_Equipo (FK) (Relaci칩n 1 a 1 con Equipo)&lt;/div&gt;&lt;div&gt;&lt;br&gt;&lt;/div&gt;" style="align=left;strokeColor=none;fillColor=none;spacingLeft=4;spacingRight=4;fontSize=12;verticalAlign=top;resizable=0;rotatable=0;part=1;html=1;whiteSpace=wrap;" vertex="1" parent="eUPfIZxgv_1y9K3NGQbY-7">
          <mxGeometry y="50" width="160" height="120" as="geometry" />
        </mxCell>
        <mxCell id="eUPfIZxgv_1y9K3NGQbY-11" value="PARTIDO" style="swimlane;childLayout=stackLayout;horizontal=1;startSize=50;horizontalStack=0;rounded=1;fontSize=14;fontStyle=0;strokeWidth=2;resizeParent=0;resizeLast=1;shadow=0;dashed=0;align=center;arcSize=4;whiteSpace=wrap;html=1;" vertex="1" parent="1">
          <mxGeometry x="300" y="540" width="160" height="150" as="geometry" />
        </mxCell>
        <mxCell id="eUPfIZxgv_1y9K3NGQbY-12" value="&lt;div&gt;- ID_Partido (PK)&lt;/div&gt;&lt;div&gt;- Fecha&lt;/div&gt;&lt;div&gt;- GolesCasa&lt;/div&gt;&lt;div&gt;- GolesVisit&lt;/div&gt;&lt;div&gt;- ID_EquipoCasa (FK)&lt;/div&gt;&lt;div&gt;- ID_EquipoVisit (FK)&lt;/div&gt;&lt;div&gt;&lt;br&gt;&lt;/div&gt;" style="align=left;strokeColor=none;fillColor=none;spacingLeft=4;spacingRight=4;fontSize=12;verticalAlign=top;resizable=0;rotatable=0;part=1;html=1;whiteSpace=wrap;" vertex="1" parent="eUPfIZxgv_1y9K3NGQbY-11">
          <mxGeometry y="50" width="160" height="100" as="geometry" />
        </mxCell>
        <mxCell id="eUPfIZxgv_1y9K3NGQbY-13" value="GOL" style="swimlane;childLayout=stackLayout;horizontal=1;startSize=50;horizontalStack=0;rounded=1;fontSize=14;fontStyle=0;strokeWidth=2;resizeParent=0;resizeLast=1;shadow=0;dashed=0;align=center;arcSize=4;whiteSpace=wrap;html=1;" vertex="1" parent="1">
          <mxGeometry x="620" y="540" width="160" height="150" as="geometry" />
        </mxCell>
        <mxCell id="eUPfIZxgv_1y9K3NGQbY-14" value="&lt;div&gt;- ID_Gol (PK)&lt;/div&gt;&lt;div&gt;- Minuto&lt;/div&gt;&lt;div&gt;- Descripcion&lt;/div&gt;&lt;div&gt;- ID_Partido (FK)&lt;/div&gt;&lt;div&gt;- ID_Jugador (FK)&lt;/div&gt;" style="align=left;strokeColor=none;fillColor=none;spacingLeft=4;spacingRight=4;fontSize=12;verticalAlign=top;resizable=0;rotatable=0;part=1;html=1;whiteSpace=wrap;" vertex="1" parent="eUPfIZxgv_1y9K3NGQbY-13">
          <mxGeometry y="50" width="160" height="100" as="geometry" />
        </mxCell>
        <mxCell id="eUPfIZxgv_1y9K3NGQbY-22" value="Posee" style="shape=rhombus;perimeter=rhombusPerimeter;whiteSpace=wrap;html=1;align=center;" vertex="1" parent="1">
          <mxGeometry x="460" y="285" width="120" height="60" as="geometry" />
        </mxCell>
        <mxCell id="eUPfIZxgv_1y9K3NGQbY-23" value="" style="endArrow=none;html=1;rounded=0;entryX=1;entryY=0.5;entryDx=0;entryDy=0;exitX=0;exitY=0.25;exitDx=0;exitDy=0;" edge="1" parent="1" source="eUPfIZxgv_1y9K3NGQbY-6" target="eUPfIZxgv_1y9K3NGQbY-22">
          <mxGeometry width="50" height="50" relative="1" as="geometry">
            <mxPoint x="520" y="420" as="sourcePoint" />
            <mxPoint x="570" y="370" as="targetPoint" />
          </mxGeometry>
        </mxCell>
        <mxCell id="eUPfIZxgv_1y9K3NGQbY-24" value="" style="endArrow=none;html=1;rounded=0;entryX=0;entryY=0.5;entryDx=0;entryDy=0;exitX=1;exitY=0.25;exitDx=0;exitDy=0;" edge="1" parent="1" source="eUPfIZxgv_1y9K3NGQbY-2" target="eUPfIZxgv_1y9K3NGQbY-22">
          <mxGeometry width="50" height="50" relative="1" as="geometry">
            <mxPoint x="490" y="430" as="sourcePoint" />
            <mxPoint x="540" y="380" as="targetPoint" />
          </mxGeometry>
        </mxCell>
        <mxCell id="eUPfIZxgv_1y9K3NGQbY-25" value="N" style="text;html=1;align=center;verticalAlign=middle;whiteSpace=wrap;rounded=0;" vertex="1" parent="1">
          <mxGeometry x="570" y="285" width="60" height="30" as="geometry" />
        </mxCell>
        <mxCell id="eUPfIZxgv_1y9K3NGQbY-26" value="1" style="text;html=1;align=center;verticalAlign=middle;whiteSpace=wrap;rounded=0;" vertex="1" parent="1">
          <mxGeometry x="410" y="285" width="60" height="30" as="geometry" />
        </mxCell>
        <mxCell id="eUPfIZxgv_1y9K3NGQbY-27" value="Lidera" style="shape=rhombus;perimeter=rhombusPerimeter;whiteSpace=wrap;html=1;align=center;" vertex="1" parent="1">
          <mxGeometry x="90" y="440" width="120" height="60" as="geometry" />
        </mxCell>
        <mxCell id="eUPfIZxgv_1y9K3NGQbY-28" value="" style="endArrow=none;html=1;rounded=0;exitX=0.5;exitY=0;exitDx=0;exitDy=0;entryX=0.25;entryY=1;entryDx=0;entryDy=0;" edge="1" parent="1" source="eUPfIZxgv_1y9K3NGQbY-27" target="eUPfIZxgv_1y9K3NGQbY-2">
          <mxGeometry width="50" height="50" relative="1" as="geometry">
            <mxPoint x="430" y="460" as="sourcePoint" />
            <mxPoint x="480" y="410" as="targetPoint" />
            <Array as="points">
              <mxPoint x="150" y="410" />
              <mxPoint x="300" y="410" />
            </Array>
          </mxGeometry>
        </mxCell>
        <mxCell id="eUPfIZxgv_1y9K3NGQbY-29" value="" style="endArrow=none;html=1;rounded=0;exitX=0.5;exitY=1;exitDx=0;exitDy=0;entryX=0.5;entryY=0;entryDx=0;entryDy=0;" edge="1" parent="1" source="eUPfIZxgv_1y9K3NGQbY-27" target="eUPfIZxgv_1y9K3NGQbY-7">
          <mxGeometry width="50" height="50" relative="1" as="geometry">
            <mxPoint x="160" y="530" as="sourcePoint" />
            <mxPoint x="210" y="480" as="targetPoint" />
          </mxGeometry>
        </mxCell>
        <mxCell id="eUPfIZxgv_1y9K3NGQbY-30" value="1" style="text;html=1;align=center;verticalAlign=middle;whiteSpace=wrap;rounded=0;" vertex="1" parent="1">
          <mxGeometry x="250" y="410" width="60" height="30" as="geometry" />
        </mxCell>
        <mxCell id="eUPfIZxgv_1y9K3NGQbY-31" value="1" style="text;html=1;align=center;verticalAlign=middle;whiteSpace=wrap;rounded=0;" vertex="1" parent="1">
          <mxGeometry x="130" y="510" width="60" height="30" as="geometry" />
        </mxCell>
        <mxCell id="eUPfIZxgv_1y9K3NGQbY-33" value="Juega" style="shape=rhombus;perimeter=rhombusPerimeter;whiteSpace=wrap;html=1;align=center;" vertex="1" parent="1">
          <mxGeometry x="320" y="440" width="120" height="60" as="geometry" />
        </mxCell>
        <mxCell id="eUPfIZxgv_1y9K3NGQbY-34" value="" style="endArrow=none;html=1;rounded=0;entryX=0.5;entryY=1;entryDx=0;entryDy=0;exitX=0.5;exitY=0;exitDx=0;exitDy=0;" edge="1" parent="1" source="eUPfIZxgv_1y9K3NGQbY-11" target="eUPfIZxgv_1y9K3NGQbY-33">
          <mxGeometry width="50" height="50" relative="1" as="geometry">
            <mxPoint x="170" y="540" as="sourcePoint" />
            <mxPoint x="220" y="490" as="targetPoint" />
          </mxGeometry>
        </mxCell>
        <mxCell id="eUPfIZxgv_1y9K3NGQbY-36" value="N" style="text;html=1;align=center;verticalAlign=middle;whiteSpace=wrap;rounded=0;" vertex="1" parent="1">
          <mxGeometry x="360" y="390" width="60" height="30" as="geometry" />
        </mxCell>
        <mxCell id="eUPfIZxgv_1y9K3NGQbY-37" value="1" style="text;html=1;align=center;verticalAlign=middle;whiteSpace=wrap;rounded=0;" vertex="1" parent="1">
          <mxGeometry x="340" y="510" width="60" height="30" as="geometry" />
        </mxCell>
        <mxCell id="eUPfIZxgv_1y9K3NGQbY-38" value="" style="endArrow=none;html=1;rounded=0;entryX=0.5;entryY=0;entryDx=0;entryDy=0;exitX=0.75;exitY=1;exitDx=0;exitDy=0;" edge="1" parent="1" source="eUPfIZxgv_1y9K3NGQbY-2" target="eUPfIZxgv_1y9K3NGQbY-33">
          <mxGeometry width="50" height="50" relative="1" as="geometry">
            <mxPoint x="320" y="490" as="sourcePoint" />
            <mxPoint x="370" y="440" as="targetPoint" />
          </mxGeometry>
        </mxCell>
        <mxCell id="eUPfIZxgv_1y9K3NGQbY-39" value="Mete" style="shape=rhombus;perimeter=rhombusPerimeter;whiteSpace=wrap;html=1;align=center;" vertex="1" parent="1">
          <mxGeometry x="640" y="440" width="120" height="60" as="geometry" />
        </mxCell>
        <mxCell id="eUPfIZxgv_1y9K3NGQbY-40" value="" style="endArrow=none;html=1;rounded=0;entryX=0.5;entryY=1;entryDx=0;entryDy=0;exitX=0.5;exitY=0;exitDx=0;exitDy=0;" edge="1" parent="1" source="eUPfIZxgv_1y9K3NGQbY-39" target="eUPfIZxgv_1y9K3NGQbY-6">
          <mxGeometry width="50" height="50" relative="1" as="geometry">
            <mxPoint x="550" y="480" as="sourcePoint" />
            <mxPoint x="600" y="430" as="targetPoint" />
          </mxGeometry>
        </mxCell>
        <mxCell id="eUPfIZxgv_1y9K3NGQbY-41" value="" style="endArrow=none;html=1;rounded=0;entryX=0.5;entryY=1;entryDx=0;entryDy=0;exitX=0.5;exitY=0;exitDx=0;exitDy=0;" edge="1" parent="1" source="eUPfIZxgv_1y9K3NGQbY-13" target="eUPfIZxgv_1y9K3NGQbY-39">
          <mxGeometry width="50" height="50" relative="1" as="geometry">
            <mxPoint x="560" y="540" as="sourcePoint" />
            <mxPoint x="610" y="490" as="targetPoint" />
          </mxGeometry>
        </mxCell>
        <mxCell id="eUPfIZxgv_1y9K3NGQbY-42" value="1" style="text;html=1;align=center;verticalAlign=middle;whiteSpace=wrap;rounded=0;" vertex="1" parent="1">
          <mxGeometry x="660" y="390" width="60" height="30" as="geometry" />
        </mxCell>
        <mxCell id="eUPfIZxgv_1y9K3NGQbY-43" value="N" style="text;html=1;align=center;verticalAlign=middle;whiteSpace=wrap;rounded=0;" vertex="1" parent="1">
          <mxGeometry x="660" y="510" width="60" height="30" as="geometry" />
        </mxCell>
        <mxCell id="eUPfIZxgv_1y9K3NGQbY-45" value="Se anotan" style="shape=rhombus;perimeter=rhombusPerimeter;whiteSpace=wrap;html=1;align=center;" vertex="1" parent="1">
          <mxGeometry x="480" y="585" width="120" height="60" as="geometry" />
        </mxCell>
        <mxCell id="eUPfIZxgv_1y9K3NGQbY-46" value="" style="endArrow=none;html=1;rounded=0;entryX=0;entryY=0.5;entryDx=0;entryDy=0;exitX=1;exitY=0.25;exitDx=0;exitDy=0;" edge="1" parent="1" source="eUPfIZxgv_1y9K3NGQbY-12" target="eUPfIZxgv_1y9K3NGQbY-45">
          <mxGeometry width="50" height="50" relative="1" as="geometry">
            <mxPoint x="490" y="720" as="sourcePoint" />
            <mxPoint x="540" y="670" as="targetPoint" />
          </mxGeometry>
        </mxCell>
        <mxCell id="eUPfIZxgv_1y9K3NGQbY-47" value="" style="endArrow=none;html=1;rounded=0;entryX=1;entryY=0.5;entryDx=0;entryDy=0;exitX=0;exitY=0.25;exitDx=0;exitDy=0;" edge="1" parent="1" source="eUPfIZxgv_1y9K3NGQbY-14" target="eUPfIZxgv_1y9K3NGQbY-45">
          <mxGeometry width="50" height="50" relative="1" as="geometry">
            <mxPoint x="560" y="700" as="sourcePoint" />
            <mxPoint x="610" y="650" as="targetPoint" />
          </mxGeometry>
        </mxCell>
        <mxCell id="eUPfIZxgv_1y9K3NGQbY-48" value="1" style="text;html=1;align=center;verticalAlign=middle;whiteSpace=wrap;rounded=0;" vertex="1" parent="1">
          <mxGeometry x="440" y="585" width="60" height="30" as="geometry" />
        </mxCell>
        <mxCell id="eUPfIZxgv_1y9K3NGQbY-49" value="N" style="text;html=1;align=center;verticalAlign=middle;whiteSpace=wrap;rounded=0;" vertex="1" parent="1">
          <mxGeometry x="580" y="585" width="60" height="30" as="geometry" />
        </mxCell>
        <mxCell id="eUPfIZxgv_1y9K3NGQbY-50" value="&lt;h1 style=&quot;margin-top: 0px;&quot;&gt;Casos de estudio 2: Liga de F칰tbol&lt;/h1&gt;&lt;p&gt;Jorge Manuel Oyoqui Aguilera | A01711783&lt;/p&gt;&lt;p&gt;Horacio Villera Hern치ndez | A01712206&lt;/p&gt;&lt;p&gt;Ricardo Alejandro Andeade Robledo | A01706813&lt;/p&gt;" style="text;html=1;whiteSpace=wrap;overflow=hidden;rounded=0;" vertex="1" parent="1">
          <mxGeometry x="260" y="60" width="420" height="120" as="geometry" />
        </mxCell>
      </root>
    </mxGraphModel>
  </diagram>
</mxfile>
